<?xml version="1.0" encoding="UTF-8"?>
<svg xmlns="http://www.w3.org/2000/svg" xmlns:xlink="http://www.w3.org/1999/xlink" id="Layer_2" data-name="Layer 2" viewBox="0 0 463.15 97.97">
  <defs>
    <style>
      .cls-1 {
        fill: url(#linear-gradient);
      }

      .cls-1, .cls-2, .cls-3, .cls-4, .cls-5 {
        stroke-width: 0px;
      }

      .cls-2 {
        fill: url(#radial-gradient);
      }

      .cls-3 {
        fill: url(#radial-gradient-2);
      }

      .cls-4 {
        fill: url(#linear-gradient-2);
      }

      .cls-5 {
        fill: #5f514d;
      }
    </style>
    <linearGradient id="linear-gradient" x1="35.42" y1="82.48" x2="124.61" y2="82.48" gradientUnits="userSpaceOnUse">
      <stop offset=".1" stop-color="#307e89"></stop>
      <stop offset=".22" stop-color="#338590"></stop>
      <stop offset=".44" stop-color="#398e9a"></stop>
    </linearGradient>
    <linearGradient id="linear-gradient-2" x1="121.06" y1="53.05" x2="161.59" y2="-11.82" gradientUnits="userSpaceOnUse">
      <stop offset="0" stop-color="#00909e"></stop>
      <stop offset=".17" stop-color="#0aa6b3"></stop>
      <stop offset=".4" stop-color="#15c0cb"></stop>
      <stop offset=".53" stop-color="#1acad4"></stop>
    </linearGradient>
    <radialGradient id="radial-gradient" cx="68.93" cy="68.86" fx="68.93" fy="68.86" r="94.26" gradientTransform="translate(-9.68 30.28) rotate(-11.94) scale(1 .78)" gradientUnits="userSpaceOnUse">
      <stop offset=".03" stop-color="#a7082a"></stop>
      <stop offset=".34" stop-color="#ce1d34"></stop>
      <stop offset=".66" stop-color="#f5333f"></stop>
    </radialGradient>
    <radialGradient id="radial-gradient-2" cx="122.88" cy="57.54" fx="122.88" fy="57.54" r="53.78" gradientUnits="userSpaceOnUse">
      <stop offset="0" stop-color="#a7082a"></stop>
      <stop offset=".01" stop-color="#a8082a"></stop>
      <stop offset=".42" stop-color="#d11f35"></stop>
      <stop offset=".73" stop-color="#eb2d3c"></stop>
      <stop offset=".93" stop-color="#f5333f"></stop>
    </radialGradient>
    <symbol id="Ventures_CMYK" data-name="Ventures CMYK" viewBox="0 0 189.67 97.97">
      <g>
        <path class="cls-1" d="m124.61,67c-13.42,11.36-43.38,11.84-59.34.66l-8.33,8.68c17.53,10.83,40.12,5.23,40.12,5.23-12.92,7.16-25.07,6.7-42.86,6.7h-9.14l-1.39,1.36-8.25,8.36h18.78c25.21,0,43-2.78,60.56-20.87l4.72-4.84h0l5.13-5.27Z"></path>
        <path class="cls-4" d="m189.67.25L145.9,0c-9.05-.04-17.73,3.57-24.09,10.01l-26.12,26.63,30.28,28.96L189.67.25Z"></path>
        <path class="cls-2" d="m67.85,10.01C61.49,3.57,52.81-.04,43.76,0L0,.25l62.45,65.2c.88.79,1.82,1.52,2.82,2.22l30.43-31.02-27.85-26.63Z"></path>
        <path class="cls-3" d="m124.61,67l1.37-1.41-30.28-28.96-30.43,31.02c15.96,11.18,45.92,10.7,59.34-.66Z"></path>
      </g>
    </symbol>
  </defs>
  <g id="RGB">
    <g id="PHC-Ventures-NoTagline-RGB">
      <use id="Ventures_RGB" data-name="Ventures RGB" width="189.67" height="97.97" xlink:href="#Ventures_CMYK"></use>
      <g>
        <path class="cls-5" d="m228.68,79.15h-12.73l-13.5-40h10.49l9.47,30.14,9.41-30.14h10.62l-13.76,40Z"></path>
        <path class="cls-5" d="m251.93,66.61c.32,3.97,3.07,6.27,7.87,6.27,3.26,0,6.72-1.15,9.73-2.88l.96,7.62c-3.01,1.54-7.29,2.43-11.58,2.43-10.11,0-16.64-5.63-16.64-15.55s6.66-16.06,16.13-16.06c8.45,0,13.05,5.06,13.05,12.48,0,1.6-.26,3.97-.64,5.25l-18.88.32v.13Zm10.37-5.12v-.58c0-3.52-1.47-5.7-4.54-5.7-3.39,0-5.44,2.94-5.76,6.34l10.3-.06Z"></path>
        <path class="cls-5" d="m296.72,79.15v-17.6c0-3.58-1.6-4.74-4.22-4.74-2.18,0-4.1,1.09-5.38,2.24v20.09h-9.86v-29.25l9.86-1.22v4.86c2.62-3.01,6.14-5.12,9.98-5.12,5.95,0,9.47,3.9,9.47,10.24v20.48h-9.86Z"></path>
        <path class="cls-5" d="m325.56,80.11c-7.36,0-11.33-3.01-10.94-10.82l.45-11.33-4.48-.77.19-6.27,4.48-1.47.13-6.78h9.54l-.06,7.1h7.42l-.19,7.74h-7.94l-.32,10.69c-.13,2.75,1.47,3.9,3.9,3.9,1.21,0,2.56-.32,3.9-.77l1.15,7.68c-2.3.7-4.22,1.09-7.23,1.09Z"></path>
        <path class="cls-5" d="m347.42,49.39v17.6c0,3.58,1.54,4.8,4.1,4.8,2.11,0,3.84-.9,5.06-1.98v-20.41h9.86v29.31l-9.86,1.22v-4.42c-2.3,2.5-5.76,4.61-9.66,4.61-5.82,0-9.34-3.9-9.34-10.24v-20.48h9.85Z"></path>
        <path class="cls-5" d="m383.28,79.15h-9.86v-29.25l9.86-1.22v4.35c1.73-3.01,4.03-4.61,7.17-4.61,1.6,0,3.33.38,4.93,1.22l-1.98,8.7c-1.15-.58-2.43-.9-3.71-.9-2.43,0-4.61,1.22-6.4,4.35v17.34Z"></path>
        <path class="cls-5" d="m406.68,66.61c.32,3.97,3.07,6.27,7.87,6.27,3.26,0,6.72-1.15,9.73-2.88l.96,7.62c-3.01,1.54-7.29,2.43-11.58,2.43-10.11,0-16.64-5.63-16.64-15.55s6.66-16.06,16.13-16.06c8.45,0,13.05,5.06,13.05,12.48,0,1.6-.26,3.97-.64,5.25l-18.88.32v.13Zm10.37-5.12v-.58c0-3.52-1.47-5.7-4.54-5.7-3.39,0-5.44,2.94-5.76,6.34l10.3-.06Z"></path>
        <path class="cls-5" d="m442.83,80.11c-4.1,0-9.47-.96-12.61-2.62l1.92-7.1c3.46,1.79,7.42,2.82,10.88,2.82,2.62,0,4.03-.9,4.03-2.43,0-1.66-1.66-2.3-5.05-3.07-6.91-1.34-11.33-3.9-11.33-9.73s4.87-9.54,13.12-9.54c3.97,0,9.15,1.15,12.1,2.56l-1.98,7.04c-3.39-1.66-7.42-2.69-10.24-2.69-2.37,0-3.65.77-3.65,2.24,0,1.6,1.86,2.24,5.12,2.94,7.04,1.54,11.2,3.84,11.2,9.79,0,5.38-4.74,9.79-13.5,9.79Z"></path>
      </g>
      <g>
        <path class="cls-5" d="m209.97,18.09l-1.52.03v4.52h-3.97V7.02h5.77c4.37,0,6.67,2.2,6.67,5.42,0,3.65-2.47,5.65-6.95,5.65Zm-.02-7.92h-1.6v4.87l1.6-.03c2.05-.02,3.02-.9,3.02-2.47s-1.02-2.37-3.02-2.37Z"></path>
        <path class="cls-5" d="m222.73,22.64h-3.85v-11.42l3.85-.47v1.7c.67-1.17,1.58-1.8,2.8-1.8.62,0,1.3.15,1.92.47l-.77,3.4c-.45-.22-.95-.35-1.45-.35-.95,0-1.8.47-2.5,1.7v6.77Z"></path>
        <path class="cls-5" d="m234.32,23.01c-3.5,0-6.17-2.2-6.17-6.15s2.8-6.22,6.32-6.22,6.15,2.25,6.15,6.15-2.82,6.22-6.3,6.22Zm.05-9.45c-1.58,0-2.4,1.27-2.4,3.27s.85,3.22,2.42,3.22,2.4-1.25,2.4-3.25-.85-3.25-2.42-3.25Z"></path>
        <path class="cls-5" d="m249.66,22.66h-4.35l-4.3-11.65h4.12l2.4,7.97,2.37-7.97h4.15l-4.4,11.65Z"></path>
        <path class="cls-5" d="m257.41,9.36c-1.4,0-2.27-.72-2.27-2.05s.88-2.07,2.27-2.07,2.27.72,2.27,2.07-.85,2.05-2.27,2.05Zm-1.92,13.27v-11.42l3.85-.47v11.9h-3.85Z"></path>
        <path class="cls-5" d="m269.68,6.12l3.85-.47v17h-3.85v-1.2c-.72.75-1.8,1.55-3.25,1.55-2.88,0-4.97-2.35-4.97-6.02s2.7-6.3,5.82-6.3c.85,0,1.67.15,2.4.4v-4.95Zm-1.77,7.4c-1.62,0-2.6,1.32-2.6,3.25s1,3.15,2.42,3.15c.85,0,1.45-.3,1.95-.8,0,.05,0-5.1,0-5.1-.42-.3-1.05-.5-1.77-.5Z"></path>
        <path class="cls-5" d="m279.49,17.74c.12,1.55,1.2,2.45,3.08,2.45,1.27,0,2.62-.45,3.8-1.12l.38,2.97c-1.17.6-2.85.95-4.52.95-3.95,0-6.5-2.2-6.5-6.07s2.6-6.27,6.3-6.27c3.3,0,5.1,1.97,5.1,4.87,0,.62-.1,1.55-.25,2.05l-7.37.12v.05Zm4.05-2v-.22c0-1.38-.58-2.22-1.78-2.22-1.32,0-2.12,1.15-2.25,2.47l4.02-.03Z"></path>
        <path class="cls-5" d="m297.02,22.64v-6.87c0-1.4-.62-1.85-1.65-1.85-.85,0-1.6.42-2.1.88v7.85h-3.85v-11.42l3.85-.47v1.9c1.02-1.17,2.4-2,3.9-2,2.32,0,3.7,1.53,3.7,4v8h-3.85Z"></path>
        <path class="cls-5" d="m309.28,23.01c-3.85,0-6.3-2.15-6.3-6.1s2.5-6.27,6.4-6.27c1.62,0,3.17.38,4.22.97l-.75,2.9c-.92-.52-2.05-.9-3.07-.9-1.85,0-2.87,1.3-2.87,3.17,0,2.08,1.17,3.22,2.97,3.22,1.17,0,2.17-.33,3.07-.88l.58,2.92c-.97.6-2.57.95-4.25.95Z"></path>
        <path class="cls-5" d="m318.64,17.74c.12,1.55,1.2,2.45,3.07,2.45,1.28,0,2.62-.45,3.8-1.12l.38,2.97c-1.17.6-2.85.95-4.52.95-3.95,0-6.5-2.2-6.5-6.07s2.6-6.27,6.3-6.27c3.3,0,5.1,1.97,5.1,4.87,0,.62-.1,1.55-.25,2.05l-7.37.12v.05Zm4.05-2v-.22c0-1.38-.58-2.22-1.77-2.22-1.33,0-2.12,1.15-2.25,2.47l4.02-.03Z"></path>
        <path class="cls-5" d="m344.89,22.64v-6.2h-6.27v6.2h-3.97V7.02h3.97v6.07h6.27v-6.07h3.97v15.62h-3.97Z"></path>
        <path class="cls-5" d="m355.18,17.74c.12,1.55,1.2,2.45,3.07,2.45,1.28,0,2.62-.45,3.8-1.12l.38,2.97c-1.17.6-2.85.95-4.52.95-3.95,0-6.5-2.2-6.5-6.07s2.6-6.27,6.3-6.27c3.3,0,5.1,1.97,5.1,4.87,0,.62-.1,1.55-.25,2.05l-7.37.12v.05Zm4.05-2v-.22c0-1.38-.58-2.22-1.77-2.22-1.33,0-2.12,1.15-2.25,2.47l4.02-.03Z"></path>
        <path class="cls-5" d="m371.32,21.24c-.83.97-1.75,1.77-3.35,1.77-2,0-3.55-1.42-3.55-3.22,0-2.2,1.65-3.97,6.87-4.12v-.23c0-1.22-.62-1.77-2.05-1.77-1.2,0-2.6.5-3.95,1.17l-.8-2.82c1.22-.65,3.15-1.38,5.35-1.38,4.02,0,5.35,1.83,5.3,5.07l-.03,3.45c0,.8.15.88.95.95l-.37,2.75c-2.52.32-3.77-.35-4.3-1.62h-.07Zm-.03-3.77c-2.37.28-3.25.73-3.25,1.75,0,.75.6,1.25,1.45,1.25.78,0,1.4-.33,1.8-.78v-2.22Z"></path>
        <path class="cls-5" d="m377.99,22.64V6.12l3.85-.47v17h-3.85Z"></path>
        <path class="cls-5" d="m389.39,23.01c-2.88,0-4.42-1.17-4.27-4.22l.17-4.42-1.75-.3.08-2.45,1.75-.57.05-2.65h3.72l-.03,2.77h2.9l-.08,3.02h-3.1l-.12,4.17c-.05,1.07.57,1.52,1.52,1.52.47,0,1-.12,1.52-.3l.45,3c-.9.28-1.65.42-2.82.42Z"></path>
        <path class="cls-5" d="m401.84,22.64v-6.87c0-1.4-.62-1.85-1.6-1.85-.9,0-1.65.42-2.15.88v7.85h-3.85V6.12l3.85-.47v6.97c1.02-1.17,2.4-1.97,3.92-1.97,2.3,0,3.67,1.53,3.67,4v8h-3.85Z"></path>
        <path class="cls-5" d="m426.31,11.14c-1.17-.7-2.55-1.12-3.95-1.12-2.7,0-4.45,1.83-4.45,4.77s1.65,4.85,4.47,4.85c1.53,0,2.95-.5,4.12-1.27l.83,3.52c-1.22.67-3.3,1.12-5.12,1.12-5,0-8.3-2.87-8.3-8.12s3.27-8.25,8.42-8.25c1.9,0,3.75.48,5.17,1.17l-1.2,3.32Z"></path>
        <path class="cls-5" d="m435.83,21.24c-.83.97-1.75,1.77-3.35,1.77-2,0-3.55-1.42-3.55-3.22,0-2.2,1.65-3.97,6.87-4.12v-.23c0-1.22-.62-1.77-2.05-1.77-1.2,0-2.6.5-3.95,1.17l-.8-2.82c1.22-.65,3.15-1.38,5.35-1.38,4.02,0,5.35,1.83,5.3,5.07l-.03,3.45c0,.8.15.88.95.95l-.37,2.75c-2.52.32-3.77-.35-4.3-1.62h-.07Zm-.03-3.77c-2.37.28-3.25.73-3.25,1.75,0,.75.6,1.25,1.45,1.25.78,0,1.4-.33,1.8-.78v-2.22Z"></path>
        <path class="cls-5" d="m446.34,22.64h-3.85v-11.42l3.85-.47v1.7c.67-1.17,1.57-1.8,2.8-1.8.62,0,1.3.15,1.92.47l-.77,3.4c-.45-.22-.95-.35-1.45-.35-.95,0-1.8.47-2.5,1.7v6.77Z"></path>
        <path class="cls-5" d="m455.52,17.74c.12,1.55,1.2,2.45,3.08,2.45,1.27,0,2.62-.45,3.8-1.12l.38,2.97c-1.17.6-2.85.95-4.52.95-3.95,0-6.5-2.2-6.5-6.07s2.6-6.27,6.3-6.27c3.3,0,5.1,1.97,5.1,4.87,0,.62-.1,1.55-.25,2.05l-7.37.12v.05Zm4.05-2v-.22c0-1.38-.58-2.22-1.78-2.22-1.32,0-2.12,1.15-2.25,2.47l4.02-.03Z"></path>
      </g>
    </g>
  </g>
</svg>
